<svg width="140" height="27" viewBox="0 0 140 27" fill="none" xmlns="http://www.w3.org/2000/svg">
<g clip-path="url(#clip0_538_5517)">
<path d="M116.93 11.3327C114.12 9.86524 111.789 9.75422 110.698 9.75422H106.904L106.701 9.39701H111.161C111.47 9.39701 115.168 9.34391 117.345 9.92799C120.067 10.6569 121.95 12.0857 122.317 12.3271C122.683 12.5636 127.651 16.1212 127.651 16.1212C127.651 16.1212 126.815 16.9756 126 16.9756C125.227 16.9756 124.392 16.3819 124.392 16.3819C124.392 16.3819 121.733 14.4655 121.327 14.1807C120.922 13.8959 118.822 12.3319 116.925 11.3375L116.93 11.3327Z" fill="#358E9D"/>
<path d="M116.727 14.1371C118.604 15.3825 119.71 16.2949 120.072 16.5555C120.429 16.8162 122.099 18.0085 122.099 18.0085C122.099 18.0085 122.867 18.6071 123.808 18.6071C124.523 18.6071 125.401 17.7768 125.401 17.7768C125.401 17.7768 121.414 14.9626 121.052 14.7116C120.69 14.4557 119.411 13.4469 117.026 12.8193C115.032 12.2932 112.199 12.3077 112.011 12.3077H108.381L108.593 12.6745C108.593 12.6745 111.33 12.6793 111.538 12.6793C111.977 12.6793 114.748 12.8145 116.727 14.1275V14.1371Z" fill="#358E9D"/>
<path d="M117.34 8.39282C119.758 9.69132 122.152 11.487 122.596 11.8104C123.045 12.1338 126.68 14.7357 126.68 14.7357C126.68 14.7357 127.53 15.3101 128.307 15.3101C129.065 15.3101 129.924 14.4702 129.924 14.4702C129.924 14.4702 124.122 10.2947 123.601 9.92785C123.079 9.56099 120.989 7.84735 117.634 7.05088C115.008 6.38473 110.625 6.46197 110.321 6.46197H105.011L105.224 6.82883H109.858C110.818 6.82883 114.521 6.8771 117.335 8.39282H117.34Z" fill="#358E9D"/>
<path d="M138.367 8.33507C137.652 8.20956 136.711 8.15163 136.711 8.15163L135.427 8.5185L134.693 7.90545C134.693 7.90545 136.223 8.02613 136.648 8.08888C137.015 8.08888 136.894 7.90545 136.706 7.53376C136.523 7.1669 136.098 7.1669 136.098 7.1669H132.241C132.241 7.1669 131.551 7.17173 130.759 6.98829C129.963 6.80486 129.649 6.2063 129.649 6.2063C129.34 6.91589 130.566 7.74133 130.566 7.74133L134.384 10.4783C134.877 10.7872 135.301 10.5411 135.301 10.5411C135.301 10.5411 136.281 10.0487 136.832 9.92802C137.324 9.80734 138.849 9.74459 139.033 9.80734C139.462 9.87009 139.95 10.2997 139.95 10.2997C140.196 8.58125 139.091 8.47022 138.362 8.33507H138.367Z" fill="#202D5C"/>
<path d="M118.093 2.66306C120.753 3.83123 124.556 6.67441 125.111 7.07989C125.671 7.48537 131.15 11.4098 131.15 11.4098C131.15 11.4098 132.009 12.0229 132.806 12.0229C133.602 12.0229 134.389 11.2216 134.389 11.2216C134.389 11.2216 126.646 5.65589 126.087 5.25524C125.527 4.85458 122.959 2.69203 118.185 1.43215C114.917 0.568088 109.298 0.606705 108.646 0.606705H101.637L101.854 0.978395H108.279C109.901 0.978395 114.579 1.11355 118.098 2.66306H118.093Z" fill="#202D5C"/>
<path d="M117.687 5.52079C114.815 4.08231 111.272 3.9037 109.211 3.9037H103.539L103.327 3.53684H109.491C110.157 3.53684 114.825 3.48857 117.914 4.18851C121.477 4.99946 124.542 7.3358 124.86 7.55784C125.164 7.77024 132.198 12.8146 132.198 12.8146C132.198 12.8146 131.396 13.64 130.532 13.64C129.741 13.64 128.881 13.027 128.881 13.027C128.881 13.027 124.305 9.74454 123.861 9.43077C123.422 9.11701 120.361 6.85308 117.687 5.51597V5.52079Z" fill="#202D5C"/>
<path d="M14.7438 21.822C14.7438 21.822 14.3142 21.7255 13.7929 21.7255C12.6344 21.7255 11.7751 22.2371 11.5386 23.0095C11.4855 23.1543 11.471 23.4777 11.471 23.6418C11.471 24.6218 12.1565 25.172 12.9964 25.172C13.1557 25.172 13.4212 25.1334 13.6481 25.0465C14.2515 24.8245 14.7438 24.419 14.7438 23.8011V21.822ZM15.5403 26.2051C15.4631 26.2051 15.1252 26.2244 14.9852 26.0651C14.85 25.9396 14.85 25.7513 14.85 25.5968V25.1045C14.3432 25.8527 13.4888 26.3595 12.2048 26.3306C10.187 26.2726 9.74292 24.6893 9.74292 23.8156C9.74292 23.5067 9.77188 22.9178 10.2305 22.2902C10.9449 21.2862 12.4268 20.958 13.7494 20.958C14.3142 20.958 14.7438 21.04 14.7438 21.04V20.1567C14.7438 19.8429 14.7438 19.3071 14.4301 18.9306C14.1597 18.6168 13.6626 18.3803 12.7792 18.3803C11.4035 18.3803 10.5008 19.1574 10.5008 19.1574L10.6649 18.1148C10.6649 18.1148 11.5965 17.4824 13.093 17.4824C14.3432 17.4824 15.2072 17.8251 15.7141 18.3368C16.2982 18.945 16.443 19.505 16.443 20.6249V26.2051H15.5403Z" fill="#474343"/>
<path d="M21.1012 18.6506C19.653 18.9258 19.4938 20.0698 19.4938 20.8759V26.2051H17.7946V18.5879C17.7946 17.8542 17.3119 17.6997 17.3119 17.6997H18.9917C19.3634 17.6997 19.4938 17.9072 19.4938 18.139V18.6024C19.5469 18.4479 20.1551 17.6369 21.2798 17.5983C21.6467 17.5838 22.0666 17.6176 22.2935 17.7528L22.5155 18.8244C22.2645 18.6844 21.7915 18.5155 21.0964 18.6458L21.1012 18.6506Z" fill="#474343"/>
<path d="M29.2542 26.205C29.1962 26.205 28.8438 26.2243 28.6845 26.065C28.559 25.9395 28.559 25.7078 28.559 25.5968V25.1044C28.1005 25.8527 27.275 26.3257 26.1406 26.3257C25.2525 26.3257 24.6491 26.123 24.1229 25.5534C23.5678 24.9355 23.4278 24.168 23.4278 23.1302V18.4623C23.4278 17.8589 22.9065 17.6996 22.921 17.7045H24.5043C24.8952 17.7045 25.1318 17.9024 25.1318 18.1968V23.3232C25.1318 24.839 25.5807 25.2686 26.6427 25.2686C27.5164 25.2686 28.4673 24.6797 28.4673 23.777V17.7093H30.152V26.2099H29.259L29.2542 26.205Z" fill="#474343"/>
<path d="M52.5162 26.2049C52.1638 26.2049 51.9514 26.0553 51.9514 25.6257V15.5949C51.9514 14.9625 51.4639 14.7212 51.4639 14.7212H53.1051C53.5926 14.7212 53.8099 14.9577 53.8099 15.3101V26.2098H52.5065L52.5162 26.2049Z" fill="#474343"/>
<path d="M75.6671 18.4093C73.9534 18.39 73.6542 20.1567 73.6542 22.0393C73.6542 24.3804 74.2431 25.5003 75.6671 25.5003C76.9221 25.5003 77.511 24.0522 77.511 22.0393C77.511 20.398 77.3566 18.4286 75.6671 18.4093ZM75.6333 26.3306C72.8529 26.3161 71.8536 24.5928 71.8536 22.0006C71.8536 19.6354 72.8529 17.5066 75.6333 17.5211C78.4475 17.5404 79.3067 19.6643 79.3067 22.0006C79.3067 24.3901 77.9551 26.3499 75.6333 26.3306Z" fill="#474343"/>
<path d="M101.034 25.5872C100.43 26.0989 99.6338 26.3499 98.7456 26.3595H98.6538C97.3216 26.3595 96.5927 26.0023 96.2741 25.8189L96.0327 24.81C96.0327 24.81 97.1961 25.5727 98.4077 25.5727C99.5758 25.5727 100.242 24.9452 100.165 23.9073C100.044 22.2516 96.2113 22.6475 96.2113 19.9056C96.2113 18.3996 97.4374 17.6079 98.9435 17.5886H99.04C100.594 17.5886 101.169 18.1341 101.169 18.1341L101.405 19.0754C101.405 19.0754 100.739 18.4189 99.4069 18.4189C97.9732 18.4189 97.8332 19.5677 97.8622 19.8863C97.9539 20.7118 98.5814 20.9097 99.7062 21.4021C100.879 21.9041 101.806 22.5509 101.806 23.7963C101.806 24.588 101.502 25.1962 101.043 25.5872H101.034Z" fill="#474343"/>
<path d="M103.331 26.2049C103.018 26.2049 102.849 26.0408 102.849 25.7608V18.467C102.849 17.9071 102.318 17.7043 102.318 17.7043H104.051C104.398 17.7043 104.533 17.8878 104.533 18.2112V26.2049H103.331Z" fill="#474343"/>
<path d="M56.7061 17.7044C57.0296 17.7044 57.1937 17.8588 57.1937 18.1436V18.8098C57.6571 18.0567 58.4825 17.5789 59.6121 17.5789C60.5003 17.5789 61.1037 17.7816 61.6298 18.356C62.1849 18.9787 62.3249 19.7414 62.3249 20.7841V26.2098H61.3112C60.8768 26.2098 60.6258 25.9153 60.6258 25.5098V20.6006C60.6258 19.0849 60.172 18.6553 59.1197 18.6553C58.246 18.6553 57.2902 19.2442 57.2902 20.1517V26.2146H55.6056V18.4477C55.6056 17.8492 55.1373 17.714 55.1373 17.714H56.711L56.7061 17.7044Z" fill="#474343"/>
<path d="M110.64 21.822C110.64 21.822 110.21 21.7255 109.684 21.7255C108.525 21.7255 107.666 22.2371 107.43 23.0095C107.376 23.1543 107.367 23.4777 107.367 23.6418C107.367 24.6218 108.047 25.172 108.892 25.172C109.052 25.172 109.322 25.1334 109.544 25.0465C110.147 24.8245 110.64 24.419 110.64 23.8011V21.822ZM111.436 26.2051C111.354 26.2051 111.026 26.2244 110.876 26.0651C110.755 25.9396 110.755 25.7513 110.755 25.5968V25.1045C110.244 25.8527 109.385 26.3595 108.101 26.3306C106.083 26.2726 105.644 24.6893 105.644 23.8156C105.644 23.5067 105.668 22.9178 106.136 22.2902C106.846 21.2862 108.327 20.958 109.645 20.958C110.22 20.958 110.649 21.04 110.649 21.04V20.1567C110.649 19.8429 110.698 19.3457 110.345 18.9257C110.089 18.6023 109.549 18.3706 108.632 18.3803C107.058 18.4092 106.406 19.1574 106.406 19.1574L106.575 18.1148C106.575 18.1148 107.502 17.4824 108.998 17.4824C110.249 17.4824 111.108 17.8251 111.615 18.3368C112.204 18.945 112.344 19.505 112.344 20.6249V26.2051H111.441H111.436Z" fill="#474343"/>
<path d="M36.7218 20.567C36.7218 20.0843 36.6591 19.3796 36.2729 18.9741C36.0026 18.6893 35.5778 18.4914 34.9696 18.4914C33.3187 18.4914 33.1304 20.6877 33.1304 21.8704V21.9959C33.1449 23.6709 33.6228 25.3314 35.0034 25.3314C35.7516 25.3314 36.2729 25.0418 36.7218 24.477V20.5622V20.567ZM37.248 26.2051C36.9149 26.2051 36.7991 26.0941 36.7991 25.7852V25.3652C36.1619 25.9348 35.544 26.3113 34.6124 26.3258H34.5786C32.1505 26.3258 31.3058 24.2743 31.3058 21.9959C31.3058 20.2871 31.9623 17.5163 34.6606 17.5163C36.2777 17.5163 36.7267 18.4914 36.7267 18.4914V15.5951C36.7267 14.9869 36.2246 14.6731 36.2246 14.6731H37.5424C38.0493 14.6731 38.4258 15.0255 38.4258 15.4068V26.2051H37.2528H37.248Z" fill="#474343"/>
<path d="M44.6576 21.822C44.6576 21.822 44.2328 21.7255 43.7066 21.7255C42.5481 21.7255 41.6889 22.2371 41.4524 23.0095C41.4041 23.1543 41.3848 23.4777 41.3848 23.6418C41.3848 24.6218 42.0654 25.172 42.9102 25.172C43.0695 25.172 43.3398 25.1334 43.5618 25.0465C44.1652 24.8245 44.6576 24.419 44.6576 23.8011V21.822ZM45.4492 26.2051C45.372 26.2051 45.0341 26.2244 44.8941 26.0651C44.7638 25.9396 44.7638 25.7513 44.7638 25.5968V25.1045C44.2569 25.8527 43.4025 26.3595 42.1137 26.3306C40.1008 26.2726 39.6519 24.6893 39.6519 23.8156C39.6519 23.5067 39.6808 22.9178 40.1442 22.2902C40.8586 21.2862 42.3357 20.958 43.6584 20.958C44.2328 20.958 44.6576 21.04 44.6576 21.04V20.1567C44.6576 19.8429 44.6576 19.3071 44.3438 18.9306C44.0783 18.6168 43.5763 18.3803 42.6978 18.3803C41.322 18.3803 40.4145 19.1574 40.4145 19.1574L40.5835 18.1148C40.5835 18.1148 41.5151 17.4824 43.0067 17.4824C44.2618 17.4824 45.121 17.8251 45.6278 18.3368C46.2119 18.945 46.3567 19.505 46.3567 20.6249V26.2051H45.4492Z" fill="#474343"/>
<path d="M68.9718 20.567C68.9718 20.0843 68.9091 19.3796 68.5277 18.9741C68.2622 18.6893 67.8326 18.4914 67.2244 18.4914C65.5735 18.4914 65.3804 20.6877 65.3804 21.8704V21.9959C65.3998 23.6709 65.8728 25.3314 67.2582 25.3314C68.0112 25.3314 68.5229 25.0418 68.9718 24.477V20.5622V20.567ZM69.5028 26.2051C69.1697 26.2051 69.0491 26.0941 69.0491 25.7852V25.3652C68.4167 25.9348 67.794 26.3113 66.8575 26.3258H66.8141C64.4005 26.3258 63.5558 24.2743 63.5558 21.9959C63.5558 20.2871 64.2074 17.5163 66.9058 17.5163C68.5229 17.5163 68.967 18.4914 68.967 18.4914V15.5951C68.967 14.9869 68.4698 14.6731 68.4698 14.6731H69.7924C70.2993 14.6731 70.671 15.0255 70.671 15.4068V26.2051H69.5028Z" fill="#474343"/>
<path d="M81.6045 17.7044C81.9327 17.7044 82.0968 17.8588 82.0968 18.1436V18.8098C82.5554 18.0567 83.3808 17.5789 84.5152 17.5789C85.4034 17.5789 86.002 17.7816 86.5281 18.356C87.0833 18.9787 87.2281 19.7414 87.2281 20.7841V26.2098H86.2095C85.7799 26.2098 85.5289 25.9153 85.5289 25.5098V20.6006C85.5289 19.0849 85.0752 18.6553 84.018 18.6553C83.1443 18.6553 82.1934 19.2442 82.1934 20.1517V26.2146H80.5039V18.4477C80.5039 17.8492 80.0356 17.714 80.0356 17.714H81.5996L81.6045 17.7044Z" fill="#474343"/>
<path d="M7.02525 26.2629C6.33979 26.3546 5.92949 26.3884 5.26334 26.3884C3.51592 26.3884 2.40568 25.8623 1.56093 25.0368C0.325183 23.8107 0.0065918 21.7737 0.0065918 20.4993C0.0065918 19.4711 0.180369 17.4534 1.83125 15.8991C2.59394 15.1846 3.78141 14.5764 5.56262 14.5764C7.15075 14.5764 7.91344 15.0302 7.91344 15.0302L8.20789 16.0825C8.14514 16.0535 7.32453 15.5805 5.95845 15.5805C3.15388 15.5805 1.97606 17.5065 1.97606 20.5041C1.97606 25.0368 4.18206 25.394 5.43229 25.394C6.32048 25.394 6.67769 25.254 6.67769 25.254V20.7503H5.70261C5.04612 20.7503 4.76615 20.8517 4.76615 20.8517L4.90613 19.9394H8.50718V25.9395C7.91826 26.094 7.6045 26.1857 7.01559 26.2629H7.02525Z" fill="#474343"/>
<path d="M90.1919 21.9572C90.1919 21.9572 90.6215 22.0489 91.1477 22.0489C93.0351 22.0489 93.4647 21.1221 93.5516 20.0505C93.624 19.0947 93.3681 18.1438 91.891 18.3272C90.5491 18.4961 90.1919 19.3699 90.1919 20.4608C90.1919 21.3635 90.1967 21.9572 90.1967 21.9572M92.7358 17.4873C94.7487 17.6321 95.1976 19.1333 95.1976 20.0022C95.1976 20.316 95.1687 20.9049 94.7053 21.5276C93.9908 22.5365 92.5137 22.8599 91.1959 22.8599C90.6215 22.8599 90.1967 22.7826 90.1967 22.7826V23.5695C90.1967 25.0562 90.9884 25.4569 92.2965 25.4376C93.7591 25.4183 94.9176 24.5156 94.9176 24.5156L94.7535 25.5582C94.7535 25.5582 93.4261 26.3306 91.9297 26.3306C90.6746 26.3306 89.7285 25.9975 89.2265 25.4762C88.6038 24.8293 88.4976 23.9605 88.4976 22.8406V20.9821C88.4976 19.3988 89.1492 17.2314 92.7358 17.4873Z" fill="#474343"/>
</g>
<defs>
<clipPath id="clip0_538_5517">
<rect width="140" height="25.7866" fill="white" transform="translate(0 0.606689)"/>
</clipPath>
</defs>
</svg>
