<svg width="100" height="32" viewBox="0 0 100 32" fill="none" xmlns="http://www.w3.org/2000/svg">
<g clip-path="url(#clip0_3399_32468)">
<path d="M14.7349 24.117C14.7349 22.8679 14.7484 19.5292 14.7176 19.1178C14.7445 14.1496 11.1322 10.645 8.85015 10.9183C7.27104 11.0553 5.94763 11.6992 5.23705 13.5515C4.57845 15.2778 5.16726 17.574 7.35694 18.1128C9.69833 18.6915 11.0655 19.1729 12.055 19.8521C13.2674 20.6836 14.2571 22.2723 14.2834 24.119" fill="#0060AF"/>
<path d="M15.6693 31.6694C11.5409 31.6694 7.29797 30.6526 3.06074 28.6414L2.95677 28.5903L2.90704 28.4844C1.00556 24.4706 0 20.0805 0 15.7854C0 11.4967 0.964305 7.29452 2.8672 3.28615L2.91947 3.17963L3.02542 3.12651C6.94508 1.26967 11.1617 0.329102 15.5619 0.329102C19.661 0.329102 24.0387 1.37619 28.2197 3.36244L28.327 3.41018L28.3765 3.51868C30.3144 7.60644 31.3364 11.9954 31.3364 16.2194C31.3364 20.4269 30.3551 24.6328 28.4149 28.718L28.3638 28.8254L28.2558 28.8751C24.3961 30.7023 20.0433 31.6694 15.6693 31.6694ZM3.4529 28.0911C7.56921 30.0273 11.6745 31.0052 15.6693 31.0052C19.9051 31.0052 24.1178 30.0793 27.8676 28.3242C29.7304 24.3655 30.6746 20.2913 30.6746 16.2194C30.6746 12.131 29.6892 7.87825 27.825 3.91084C23.7674 2.00342 19.5299 0.991937 15.5619 0.991937C11.3018 0.991937 7.21858 1.89549 3.4173 3.67803C1.59267 7.56321 0.663967 11.6343 0.663967 15.7854C0.663967 19.9443 1.62912 24.1988 3.4529 28.0911Z" fill="#0060AF"/>
<path d="M13.756 24.1191C13.7636 22.518 12.87 21.1022 11.7019 20.3413C10.6659 19.6688 9.27494 19.2269 7.03102 18.6579C6.33738 18.4805 5.61182 18.0863 5.38721 17.584C4.79303 18.1827 4.6851 19.5287 4.78964 20.3153C4.91113 21.2256 5.97489 22.7259 7.5766 22.7847C8.55475 22.8239 9.79142 22.5742 10.3845 22.4482C11.4075 22.2272 13.0262 22.868 13.2839 24.1171" fill="#0060AF"/>
<path d="M15.562 3.17578C12.8463 3.17578 10.5003 4.96679 10.5088 8.06595C10.5173 10.6721 12.6132 12.0673 13.361 13.0638C14.4912 14.5655 15.1029 16.3429 15.1665 19.0626C15.2159 21.2272 15.2134 23.3646 15.2244 24.1221H15.8239C15.8135 23.3295 15.7863 21.0605 15.8174 18.9957C15.8581 16.2751 16.4918 14.5655 17.6226 13.0638C18.3769 12.0673 20.4711 10.6721 20.4756 8.06595C20.4858 4.96679 18.1413 3.17578 15.4278 3.17578" fill="#0060AF"/>
<path d="M16.2513 24.117C16.2513 22.8679 16.2372 19.5292 16.2675 19.1178C16.2409 14.1496 19.8509 10.645 22.1349 10.9183C23.714 11.0553 25.036 11.6992 25.7486 13.5515C26.4066 15.2778 25.8144 17.574 23.6273 18.1128C21.2848 18.6915 19.9193 19.1729 18.9273 19.8521C17.7163 20.6836 16.7958 22.2723 16.7675 24.119" fill="#0060AF"/>
<path d="M17.2291 24.1191C17.2206 22.518 18.114 21.1022 19.2786 20.3413C20.3189 19.6688 21.7115 19.2269 23.9535 18.6579C24.6485 18.4805 25.3732 18.0863 25.5939 17.584C26.1909 18.1827 26.2986 19.5287 26.194 20.3153C26.07 21.2256 25.009 22.7259 23.4102 22.7847C22.4323 22.8239 21.1891 22.5742 20.5986 22.4482C19.5795 22.2272 17.9563 22.868 17.6975 24.1171" fill="#0060AF"/>
<path d="M18.0668 29.2881L17.7192 26.7523L18.5581 26.6252C18.7624 26.5972 19.011 26.6328 19.1105 26.7608C19.2204 26.8944 19.254 27.0049 19.2752 27.1801C19.3068 27.3968 19.2441 27.6474 19 27.7723V27.7799C19.2726 27.7799 19.4374 27.9757 19.4851 28.3062C19.4922 28.376 19.5128 28.5447 19.4922 28.6854C19.4368 29.0202 19.237 29.1279 18.9 29.175L18.0668 29.2881ZM18.6067 28.834C18.7061 28.8198 18.807 28.8146 18.8858 28.7642C19.0065 28.6854 18.9955 28.5167 18.9788 28.3916C18.9367 28.1164 18.8649 28.0119 18.5731 28.0551L18.3897 28.0833L18.5058 28.8482L18.6067 28.834ZM18.431 27.6623C18.542 27.6443 18.6926 27.631 18.7553 27.5256C18.7881 27.4553 18.8302 27.3993 18.8025 27.2428C18.7683 27.0571 18.7067 26.9422 18.4711 26.9868L18.2515 27.0221L18.338 27.672" fill="#0060AF"/>
<path d="M21.7007 27.7632C21.7072 27.8103 21.7149 27.8629 21.7177 27.9101C21.7855 28.3726 21.7007 28.7554 21.1809 28.8608C20.4124 29.0089 20.2652 28.5314 20.1298 27.8629L20.0578 27.5012C19.9518 26.8616 19.9063 26.3773 20.6556 26.2281C21.078 26.151 21.3572 26.3191 21.4733 26.7395C21.4914 26.8022 21.514 26.8644 21.5225 26.9274L21.0628 27.0223C21.0096 26.8644 20.9393 26.5822 20.7325 26.6059C20.3612 26.6505 20.4838 27.1125 20.522 27.3054L20.6601 27.9996C20.7017 28.2096 20.7842 28.5449 21.1054 28.4802C21.3662 28.428 21.2526 28.0217 21.2295 27.8553" fill="#0060AF"/>
<path d="M22.4384 28.5304L22.2793 25.9062L22.8969 25.7178L24.1918 28.0001L23.7056 28.1456L23.3987 27.5656L22.8588 27.7278L22.9286 28.3872L22.4384 28.5304ZM22.8136 27.3039L23.2038 27.1909L22.6856 26.1291" fill="#0060AF"/>
<path d="M7.18367 26.5465C7.37693 25.9278 7.55012 25.4723 8.28755 25.6746C8.68225 25.7848 8.92693 25.9588 8.91535 26.4174C8.91344 26.5194 8.87975 26.6234 8.85771 26.7242L8.39858 26.5974C8.45877 26.3442 8.49691 26.1433 8.18499 26.0473C7.82447 25.9484 7.7366 26.3855 7.68687 26.5742L7.50011 27.2622C7.44078 27.4665 7.36958 27.8041 7.68687 27.8911C7.94907 27.9618 8.10814 27.7044 8.20307 27.3286L7.88182 27.2435L7.99286 26.8454L8.74809 27.0884L8.38954 28.4144L8.04202 28.32L8.12028 28.0397H8.11039C7.95047 28.2689 7.75524 28.2929 7.5843 28.2601C6.82908 28.0558 6.90791 27.5623 7.08817 26.9028" fill="#0060AF"/>
<path d="M9.99429 27.6671L9.76684 28.7458L9.25488 28.6351L9.80047 26.1162L10.6732 26.3134C11.1841 26.4236 11.3383 26.6511 11.266 27.1192C11.2247 27.3879 11.0922 27.6775 10.7687 27.6541L10.7653 27.6497C11.0388 27.7455 11.062 27.8833 11.0143 28.1218C10.9936 28.2232 10.8515 28.8389 10.9495 28.9383L10.9529 29.0138L10.4232 28.8756C10.4011 28.705 10.476 28.3981 10.5057 28.2283C10.5356 28.078 10.5834 27.8661 10.4308 27.7864C10.3113 27.7229 10.2669 27.726 10.1319 27.6949L9.99429 27.6671ZM10.0816 27.2769L10.4263 27.3698C10.6356 27.4001 10.7521 27.2916 10.7933 27.0387C10.8306 26.8067 10.7823 26.7161 10.5944 26.6711L10.2248 26.5963" fill="#0060AF"/>
<path d="M13.2782 26.6784L13.7845 26.7371L13.5664 28.5078C13.4604 29.0692 13.2434 29.3147 12.6258 29.2379C11.9974 29.1585 11.8483 28.8723 11.8864 28.3064L12.1059 26.5371L12.6162 26.5956L12.3972 28.3253C12.3741 28.5132 12.3306 28.7915 12.6648 28.8251C12.9612 28.8477 13.0284 28.6513 13.0618 28.4072" fill="#0060AF"/>
<path d="M14.3428 29.3348L14.4951 26.8027L15.4678 26.8448C15.9275 26.8674 16.0479 27.2429 16.0335 27.6012C16.0202 27.819 15.9521 28.0623 15.7622 28.1942C15.6066 28.3064 15.4065 28.333 15.2209 28.3239L14.9039 28.3063L14.8406 29.3676L14.3428 29.3348ZM14.9183 27.9202L15.176 27.9346C15.3853 27.9422 15.5241 27.8594 15.5421 27.552C15.5523 27.2568 15.4407 27.2068 15.1695 27.1949L14.9652 27.1879" fill="#0060AF"/>
<path d="M82.9524 5.6235L79.0862 12.6409C77.6268 11.4559 75.8449 10.5837 73.5713 10.5837C68.1909 10.5837 66.0055 14.5944 66.0055 17.4195C66.0055 19.5165 67.3786 22.6106 72.1659 22.6106C74.1754 22.6106 77.0321 21.2126 77.8543 20.5766L74.0304 28.7179C72.2078 29.0816 71.6091 29.307 70.0661 29.3548C61.4976 29.6105 58.0351 24.3468 58.0376 18.9681C58.0433 11.8577 64.365 3.21034 74.845 3.21034C75.4872 3.21034 76.2726 3.43241 76.9442 3.6785L77.6229 2.81055" fill="#0060AF"/>
<path d="M98.9051 3.03027L99.9999 28.5356H91.8521L91.8473 24.1613H86.2914L84.4629 28.5356H75.6265L84.8646 10.3226L82.7815 10.309L86.7396 3.03027H98.9051ZM91.7945 10.8329L88.6532 18.2515H91.8891" fill="#0060AF"/>
<path d="M52.8934 3.03055C56.9283 3.05316 59.2084 5.24339 59.2084 8.40727C59.2084 11.3239 56.8037 13.9058 54.164 15.2407C56.8817 16.2398 57.1168 18.6922 57.1168 20.4273C57.1168 24.619 52.9106 28.5359 47.4432 28.5359H35.5195L40.1707 10.5766L38.2602 10.5656L42.1657 3.03055C42.1657 3.03055 49.6123 3.00795 52.8934 3.03055ZM48.9347 13.3715C49.7694 13.3715 51.2431 13.1601 51.6115 11.5448C52.0153 9.79143 50.6322 9.74424 49.9688 9.74424L47.5983 9.73385L46.7716 13.3715L48.9347 13.3715ZM45.5833 17.8785L44.4918 22.0703H47.283C48.3813 22.0703 49.8779 21.5252 50.2446 20.1612C50.6068 18.7931 49.5606 17.8785 48.4663 17.8785" fill="#0060AF"/>
</g>
<defs>
<clipPath id="clip0_3399_32468">
<rect width="100" height="31.3403" fill="white" transform="translate(0 0.329102)"/>
</clipPath>
</defs>
</svg>
