<svg width="100" height="34" viewBox="0 0 100 34" fill="none" xmlns="http://www.w3.org/2000/svg">
<path id="Vector" fill-rule="evenodd" clip-rule="evenodd" d="M75.0357 7.13409C75.0357 8.64027 73.8804 9.70597 72.3685 9.70597C70.9708 9.73438 69.8298 8.62606 69.8013 7.23356C69.8013 7.20514 69.8013 7.16251 69.8013 7.13409C69.8013 5.72738 70.9565 4.57643 72.3685 4.57643C73.8804 4.56222 75.0357 5.71317 75.0357 7.13409ZM40.1493 9.69176C41.547 9.72017 42.7023 8.61185 42.7308 7.21935C42.7308 7.19093 42.7308 7.1483 42.7308 7.11988C42.7308 5.71317 41.5755 4.56222 40.1493 4.56222C38.6374 4.56222 37.4822 5.71317 37.4822 7.11988C37.4822 8.62606 38.6374 9.69176 40.1493 9.69176ZM53.8984 22.6932C53.1711 23.6879 52.03 24.2704 50.7892 24.2847C49.6339 24.2847 48.9208 23.3184 48.9208 21.8122C48.9208 20.0361 50.0761 18.0042 51.2313 16.8532C51.8589 16.228 53.2709 15.347 54.5117 16.5832C55.068 17.0379 56.0378 19.4109 53.8984 22.6932ZM83.6503 25.2509C85.7897 25.2509 88.086 22.949 88.5281 19.5956C88.5281 18.6294 88.4425 17.2937 86.5741 17.0379C84.9767 16.768 83.6503 18.0042 82.8516 18.9846C82.4094 19.5103 81.7819 20.846 81.3397 22.2527C80.9832 23.6594 81.4253 25.2509 83.3793 25.2509H83.6503ZM96.5152 9.6065C98.1126 9.50704 99.6244 10.5727 99.981 12.3489C100.152 14.0256 99.1823 15.7165 96.5152 16.5975C95.6309 16.9527 94.7466 17.1232 94.119 17.3079C93.7625 17.3932 93.4915 17.4784 93.2348 17.5779C93.3203 18.0184 93.4059 22.6222 90.5676 26.1603C88.6137 28.4622 86.7453 29.3431 83.907 29.3431C80.7122 29.3431 78.1449 28.2775 76.9754 25.6345C75.5491 27.6665 73.424 29.5279 69.8726 29.4426C68.0898 29.4426 66.4068 28.7321 65.4226 26.9702C63.2975 29.1726 61.258 29.6131 58.5908 29.4426C57.6923 29.4426 55.4816 28.7321 54.6829 27.0555C53.6132 28.1211 51.9302 28.8174 50.5182 29.1726C49.2774 29.4426 48.1221 29.3431 47.6799 29.3431C46.5247 29.1726 45.455 28.4622 44.7561 27.6665C44.6135 27.5386 44.4851 27.3965 44.3995 27.226C44.3995 27.1407 44.3995 27.1407 44.314 27.0555C44.2284 26.7855 44.043 26.5297 43.9574 26.2597C43.5153 26.7002 43.0731 27.226 42.5454 27.6665C41.8323 28.3769 40.948 28.7321 40.677 28.9027C40.0494 29.1726 39.4361 29.2579 38.723 29.3431C37.5677 29.5137 36.8546 29.4284 36.498 29.3431H36.4125C35.5424 29.2579 34.7295 28.9595 34.0163 28.4622C33.8024 28.3343 33.617 28.1496 33.4886 27.9364C33.3175 27.7801 33.1606 27.6096 33.0465 27.4107C33.0465 27.3681 33.0037 27.3254 32.9609 27.3254C32.2478 26.1745 32.1622 24.8388 32.5188 23.3468L35.357 13.443C35.5852 12.6757 36.1415 12.0363 36.8689 11.6811C37.6105 11.4111 38.4378 11.4111 39.1794 11.6811C41.5755 12.832 40.7768 15.2192 40.7768 15.2192C40.7768 15.3044 40.5058 16.1001 40.2491 17.1658V17.2511C39.6216 19.283 38.7373 22.4659 38.2951 24.0573C38.2096 24.1426 38.124 24.583 38.2096 25.0235C38.2096 25.2935 38.4805 25.464 38.7515 25.6487C38.9227 25.734 39.0225 25.8193 39.1081 25.8193C39.6786 25.9187 40.2634 25.7482 40.7055 25.3788C41.6754 24.583 42.6595 23.3468 43.5438 21.4002C43.8148 20.775 44.0715 20.0645 44.3425 19.3683C44.6848 18.4304 45.0984 17.5068 45.5833 16.6259C47.0952 13.8835 49.4057 11.5816 52.515 11.5816C54.0268 11.5816 56.3374 12.1073 57.3072 12.9883C58.1059 10.2459 58.9902 7.41827 59.2612 6.5373C59.2755 6.35258 59.3468 6.16786 59.4323 6.01156C59.7889 5.48582 60.7588 4.24961 62.7127 4.6901C63.9536 4.96007 64.4813 5.75579 64.7523 6.45205C64.8379 6.73623 64.8949 7.03463 64.9234 7.33302C64.9092 7.57458 64.8807 7.81613 64.8379 8.04348L60.4022 23.2474C60.0456 24.3983 59.9601 24.7536 60.231 25.2793C60.5306 25.6061 60.9442 25.8335 61.3863 25.9045C61.857 25.8903 62.3134 25.7766 62.727 25.5493C63.1692 25.194 64.0534 24.4836 64.681 23.5174C65.1231 22.8069 65.5653 21.8407 66.0217 20.4197C66.1072 20.0645 66.8204 17.8621 66.906 17.3221C67.291 16.157 67.6191 14.9776 67.8758 13.784C67.8758 13.784 68.1468 12.5478 69.1167 11.9368C69.8298 11.4821 70.6998 11.3542 71.5128 11.5816C72.3115 11.7521 72.8392 12.292 73.1958 12.7325C73.9089 13.7982 73.4668 15.0344 73.4668 15.0344L70.8852 24.2278C70.8852 24.2278 70.5287 25.194 71.4129 25.6487C71.8693 25.9613 72.4684 25.9613 72.9248 25.6487C75.3209 24.3273 76.9183 19.4677 76.9183 19.4677C77.5459 17.9615 79.0577 15.4891 80.1987 14.3382C81.9816 12.5762 83.9355 11.5958 86.3316 11.5958C88.5424 11.5958 90.4963 12.3063 91.837 13.713C92.379 13.6988 92.921 13.6135 93.4344 13.443V12.7325C93.3346 11.9084 94.119 9.87648 96.5152 9.6065ZM31.0069 0.683092C34.0163 2.00455 34.3729 5.28689 34.3729 8.45555C34.3729 10.4022 33.8452 12.8746 33.1321 15.0913C31.0069 21.9828 25.9437 28.9737 18.6555 32.9523H18.5699C18.2134 33.1228 16.0882 34.3732 13.9488 32.867C12.708 32.0145 12.0377 30.5651 12.1803 29.059L13.5067 17.2937C13.6065 16.8248 13.6636 16.3559 13.6779 15.887C13.9488 14.3808 14.12 12.9599 13.9488 11.9084C13.7777 11.0274 12.6224 8.72553 9.78416 8.81078C7.20262 8.89604 5.79062 10.8427 5.79062 12.9599C5.79062 14.1108 6.31834 14.9918 7.11705 15.7023C7.38804 15.9722 7.64477 16.0575 7.91576 16.228C7.95854 16.2706 8.02986 16.3133 8.08691 16.3133C8.42921 16.5264 8.72872 16.7964 8.97119 17.109C9.05676 17.2795 9.68432 17.9047 9.58448 18.9562C9.58448 19.3967 9.31349 20.0219 8.97119 20.5476C8.25806 21.6133 6.8318 21.7838 5.94751 21.5281C4.25026 21.0023 2.92384 19.8514 1.68299 18.1747C0.613293 16.6685 0.0285252 14.8923 0 13.0451C0 7.56037 4.26452 3.22655 9.75563 3.22655C11.5385 3.22655 13.1359 3.49652 14.5479 4.29224C15.6889 4.83219 16.6873 5.6137 17.486 6.59414C18.6412 7.83034 19.44 9.6065 19.7109 11.5532C19.9819 13.7556 19.6254 16.6827 19.2688 19.4251L18.5557 23.8442L18.4701 24.2847C18.3845 24.9099 19.0977 25.2509 19.6254 24.9099L20.3385 24.1994C28.0688 17.5637 28.5966 9.25127 28.5966 9.25127C28.5966 9.25127 24.7742 8.45555 24.7742 4.83219C24.7742 3.59599 25.4873 2.17506 26.5427 1.37935C28.2543 -0.0273693 30.3794 0.413116 31.0069 0.683092Z" fill="#FC0F3A"/>
</svg>
